<svg width="26" height="30" viewBox="0 0 26 30" fill="none" xmlns="http://www.w3.org/2000/svg">
<path d="M11.5013 18.8241C10.9149 18.6107 10.5224 18.2507 10.3236 17.7442C10.1249 17.2377 10.1404 16.6687 10.3703 16.0372C10.5919 15.4283 10.8648 14.8891 11.1889 14.4196C11.5437 13.9358 11.9734 13.492 12.478 13.0882C13.0133 12.6701 13.65 12.2889 14.3883 11.9447C14.8887 11.6926 15.2937 11.4569 15.6034 11.2376C15.9357 11.0265 16.192 10.8133 16.3725 10.5981C16.5612 10.3603 16.7049 10.1061 16.8034 9.83545C16.9921 9.31674 16.9441 8.85229 16.6592 8.44212C16.3743 8.03194 15.871 7.69552 15.1493 7.43285C14.4277 7.17018 13.7223 7.00286 13.0334 6.93089C12.3445 6.85892 11.6494 6.87409 10.9481 6.97641C10.1402 7.09099 9.49738 6.99751 9.01971 6.69595C8.55025 6.37184 8.24281 5.95346 8.09738 5.4408C7.95194 4.92814 7.95518 4.39297 8.10708 3.83529C8.28153 3.28582 8.62102 2.80919 9.12555 2.4054C9.65264 2.00981 10.3273 1.77011 11.1496 1.68628C12.2384 1.57178 13.3385 1.60184 14.4498 1.77645C15.5693 1.92852 16.5801 2.16872 17.4822 2.49706C19.0383 3.06344 20.3124 3.80813 21.3046 4.73113C22.3193 5.66234 22.9895 6.69802 23.3152 7.83817C23.6491 8.95577 23.5985 10.1122 23.1634 11.3075C22.9172 11.9841 22.5818 12.5899 22.1572 13.1249C21.7326 13.66 21.188 14.1386 20.5235 14.5608C19.8673 14.9604 19.0265 15.3057 18.0012 15.5966C17.1132 15.8608 16.4037 16.1261 15.8726 16.3925C15.3496 16.6364 14.9323 16.9059 14.6205 17.2011C14.3313 17.5045 14.0636 17.854 13.8175 18.2496C13.5959 18.5777 13.2934 18.8123 12.9099 18.9537C12.5347 19.0725 12.0651 19.0293 11.5013 18.8241ZM8.45706 26.8723C7.41964 26.4947 6.70729 25.8906 6.32 25.0601C5.95526 24.2377 5.95347 23.3304 6.31465 22.3381C6.66761 21.3683 7.24399 20.697 8.04378 20.324C8.87433 19.9367 9.80831 19.9319 10.8457 20.3095C11.8832 20.6871 12.5842 21.287 12.949 22.1094C13.3219 22.9092 13.3319 23.7939 12.9789 24.7637C12.6178 25.756 12.0332 26.4499 11.2252 26.8454C10.4172 27.2409 9.49448 27.2499 8.45706 26.8723Z" fill="white"/>
</svg>
