<svg width="12" height="18" viewBox="0 0 12 18" fill="none" xmlns="http://www.w3.org/2000/svg">
<path d="M11.1084 8.71504C10.496 7.93102 9.72101 7.16896 9.07199 7.07411C8.42297 6.97925 7.99915 7.19917 7.09556 8.07341C6.60191 8.5511 1.23853 13.9123 0.981135 14.3554C0.723742 14.7984 0.65874 15.2409 0.934044 15.7156C1.20009 16.1741 1.9779 17.0989 2.73861 17.465C3.33027 17.7498 3.81949 17.8432 4.71363 17.0405C5.41919 16.4071 10.7385 11.0929 11.2547 10.1582C11.5382 9.64526 11.431 9.12809 11.1084 8.71504Z" fill="white"/>
<path d="M10.1866 11.192C10.9701 10.5792 11.7316 9.80364 11.8264 9.15415C11.9212 8.50467 11.7014 8.08054 10.8278 7.1763C10.3504 6.68229 4.59302 0.914677 4.15028 0.6573C3.70754 0.399722 3.26541 0.334673 2.79107 0.610175C2.33284 0.876413 1.40872 1.65479 1.04286 2.41604C0.758297 3.00813 0.664919 3.49771 1.46708 4.39248C2.14991 5.15414 7.8385 10.8374 8.7445 11.3386C9.25728 11.6222 9.77407 11.5148 10.1866 11.192Z" fill="white"/>
</svg>
